{
 "cells": [
  {
   "cell_type": "code",
   "execution_count": 50,
   "metadata": {},
   "outputs": [],
   "source": [
    "from PIL import Image, ImageDraw, ImageFont\n",
    "import os"
   ]
  },
  {
   "cell_type": "code",
   "execution_count": 51,
   "metadata": {},
   "outputs": [],
   "source": [
    "# https://www.geeksforgeeks.org/python-pil-image-crop-method/\n",
    "# https://www.geeksforgeeks.org/python-pil-image-resize-method/\n",
    "# https://askubuntu.com/questions/610903/how-can-i-create-a-video-file-from-a-set-of-jpg-images"
   ]
  },
  {
   "cell_type": "code",
   "execution_count": 52,
   "metadata": {},
   "outputs": [],
   "source": [
    "FOLDER_IN_INPUTS = 'inputs'\n",
    "FOLDER_IN_WORKSPACE = 'traj'\n",
    "FOLDER_IN_V_2D = 'v_2d'\n",
    "FOLDER_IN_V_3D = 'V_comp'\n",
    "\n",
    "FOLDER_OUT = 'OUT_FRAMES'"
   ]
  },
  {
   "cell_type": "code",
   "execution_count": 53,
   "metadata": {},
   "outputs": [],
   "source": [
    "def crop_workspace_or_C_space(file_in):\n",
    "    im = Image.open(file_in)\n",
    "\n",
    "    width, height = im.size\n",
    "\n",
    "    left = width/4\n",
    "    top = 0\n",
    "    right = 3*width/4\n",
    "    bottom = height\n",
    "\n",
    "    im1 = im.crop((left, top, right, bottom))\n",
    "    #im1.show()\n",
    "    #im1.save(\"out1.png\")\n",
    "    return im1\n",
    "\n",
    "def crop_control(file_in):\n",
    "    im = Image.open(file_in)\n",
    "\n",
    "    width, height = im.size\n",
    "\n",
    "    left = 0\n",
    "    top = 0\n",
    "    right = width / 2\n",
    "    bottom = height\n",
    "\n",
    "    im1 = im.crop((left, top, right, bottom))\n",
    "    #im1.show()\n",
    "    #im1.save(\"out1.png\")\n",
    "    return im1\n",
    "\n",
    "def crop_disturbance(file_in):\n",
    "    im = Image.open(file_in)\n",
    "\n",
    "    width, height = im.size\n",
    "\n",
    "    left = width / 2 \n",
    "    top = 0\n",
    "    right = width \n",
    "    bottom = height - 2/3 * height;\n",
    "\n",
    "    im1 = im.crop((left, top, right, bottom))\n",
    "    #im1.show()\n",
    "    #im1.save(\"out1.png\")\n",
    "    return im1\n",
    "\n",
    "def crop_V3D(file_in):\n",
    "    im = Image.open(file_in)\n",
    "    return im\n",
    "    '''\n",
    "    width, height = im.size\n",
    "\n",
    "    left = width / 2 \n",
    "    top = 0\n",
    "    right = width \n",
    "    bottom = height - height/3\n",
    "\n",
    "    im1 = im.crop((left, top, right, bottom))\n",
    "    #im1.show()\n",
    "    #im1.save(\"out1.png\")\n",
    "    return im1\n",
    "    '''"
   ]
  },
  {
   "cell_type": "code",
   "execution_count": 54,
   "metadata": {},
   "outputs": [],
   "source": [
    "def resize_workspace(img_in, width_bg, height_bg):\n",
    "    #img_in = workspace\n",
    "\n",
    "    width, height = img_in.size\n",
    "    ratio = width/height \n",
    "\n",
    "    wo = width_bg / 2.7\n",
    "    ho = wo / ratio\n",
    "\n",
    "    wo = int(wo)\n",
    "    ho = int(ho)\n",
    "\n",
    "    im = img_in.resize((wo, ho), resample=Image.LANCZOS) # PIL.Image.LANCZOS (a high-quality downsampling filter)\n",
    "    #display(im)\n",
    "    return im\n",
    "    \n",
    "def resize_c_space(img_in, width_bg, height_bg):\n",
    "    #img_in = c_space\n",
    "\n",
    "    width, height = img_in.size\n",
    "    ratio = width/height \n",
    "\n",
    "    wo = width_bg / 2.7\n",
    "    ho = wo / ratio\n",
    "\n",
    "    wo = int(wo)\n",
    "    ho = int(ho)\n",
    "\n",
    "    im = img_in.resize((wo, ho), resample=Image.LANCZOS) # PIL.Image.LANCZOS (a high-quality downsampling filter)\n",
    "    #display(im)\n",
    "    return im\n",
    "\n",
    "def resize_V3D(img_in, width_bg, height_bg):\n",
    "    #img_in = c_space\n",
    "\n",
    "    width, height = img_in.size\n",
    "    ratio = width/height \n",
    "\n",
    "    wo = width_bg / 4\n",
    "    ho = wo / ratio\n",
    "\n",
    "    wo = int(wo)\n",
    "    ho = int(ho)\n",
    "\n",
    "    im = img_in.resize((wo, ho), resample=Image.LANCZOS) # PIL.Image.LANCZOS (a high-quality downsampling filter)\n",
    "    #display(im)\n",
    "    return im\n",
    "\n",
    "def resize_u(img_in, width_bg, height_bg):\n",
    "    #img_in = c_space\n",
    "\n",
    "    width, height = img_in.size\n",
    "    ratio = width/height \n",
    "\n",
    "    wo = width_bg / 4\n",
    "    ho = wo / ratio\n",
    "\n",
    "    wo = int(wo)\n",
    "    ho = int(ho)\n",
    "\n",
    "    im = img_in.resize((wo, ho), resample=Image.LANCZOS) # PIL.Image.LANCZOS (a high-quality downsampling filter)\n",
    "    #display(im)\n",
    "    return im\n",
    "\n",
    "def resize_d(img_in, width_bg, height_bg):\n",
    "    #img_in = c_space\n",
    "\n",
    "    width, height = img_in.size\n",
    "    ratio = width/height \n",
    "\n",
    "    wo = width_bg / 4\n",
    "    ho = wo / ratio\n",
    "\n",
    "    wo = int(wo)\n",
    "    ho = int(ho)\n",
    "\n",
    "    im = img_in.resize((wo, ho), resample=Image.LANCZOS) # PIL.Image.LANCZOS (a high-quality downsampling filter)\n",
    "    #display(im)\n",
    "    return im"
   ]
  },
  {
   "cell_type": "code",
   "execution_count": 55,
   "metadata": {},
   "outputs": [],
   "source": [
    "def place_c_space(img_in, background, BUTTON_LABEL_SIZE):\n",
    "    #img_in = im\n",
    "    #background = background\n",
    "\n",
    "    width_bg, height_bg = background.size\n",
    "    width_img, height_img = img_in.size \n",
    "\n",
    "    res = background.copy()\n",
    "\n",
    "    left = width_bg - width_img \n",
    "    top = height_bg - height_img - BUTTON_LABEL_SIZE\n",
    "    res.paste(img_in, (int(left), int(top)))\n",
    "    #display(res)\n",
    "    return res\n",
    "\n",
    "def place_workspace(img_in, background, BUTTON_LABEL_SIZE):\n",
    "    #img_in = im\n",
    "    #background = background\n",
    "\n",
    "    width_bg, height_bg = background.size\n",
    "    width_img, height_img = img_in.size \n",
    "\n",
    "    res = background.copy()\n",
    "\n",
    "    left = width_bg - 2 * width_img\n",
    "    top = height_bg - height_img - BUTTON_LABEL_SIZE\n",
    "    res.paste(img_in, (int(left), int(top)))\n",
    "    #display(res)\n",
    "    return res\n",
    "\n",
    "def place_V3D(img_in, background, BUTTON_LABEL_SIZE):\n",
    "    #img_in = im\n",
    "    #background = background\n",
    "\n",
    "    width_bg, height_bg = background.size\n",
    "    width_img, height_img = img_in.size \n",
    "\n",
    "    res = background.copy()\n",
    "\n",
    "    left = width_bg - width_img - width_img/5\n",
    "    top = 0\n",
    "    res.paste(img_in, (int(left), int(top)))\n",
    "    #display(res)\n",
    "    return res\n",
    "\n",
    "def place_u(img_in, background, BUTTON_LABEL_SIZE):\n",
    "    #img_in = im\n",
    "    #background = background\n",
    "\n",
    "    width_bg, height_bg = background.size\n",
    "    width_img, height_img = img_in.size \n",
    "\n",
    "    res = background.copy()\n",
    "\n",
    "    left = 0#width_bg - 2 * width_img\n",
    "    top = height_bg - 1.8 * height_img - BUTTON_LABEL_SIZE\n",
    "    res.paste(img_in, (int(left), int(top)))\n",
    "    #display(res)\n",
    "    return res\n",
    "\n",
    "def place_d(img_in, background, BUTTON_LABEL_SIZE):\n",
    "    #img_in = im\n",
    "    #background = background\n",
    "\n",
    "    width_bg, height_bg = background.size\n",
    "    width_img, height_img = img_in.size \n",
    "\n",
    "    res = background.copy()\n",
    "\n",
    "    left = width_img/15\n",
    "    top = height_bg - height_img - height_img - BUTTON_LABEL_SIZE\n",
    "    res.paste(img_in, (int(left), int(top)))\n",
    "    #display(res)\n",
    "    return res"
   ]
  },
  {
   "cell_type": "code",
   "execution_count": 56,
   "metadata": {},
   "outputs": [],
   "source": [
    "def add_lines(img_in):\n",
    "    width_bg, height_bg = img_in.size\n",
    "\n",
    "    res = ImageDraw.Draw(img_in)\n",
    "\n",
    "    x0 = width_bg/3.9\n",
    "    y0 = height_bg / 10\n",
    "    #\n",
    "    x1 = x0\n",
    "    y1 = height_bg\n",
    "    res.line([(int(x0), int(y0)), (int(x1), int(y1))], fill=(200,200,200), width=4)\n",
    "\n",
    "    x0 = width_bg * 1.9/3\n",
    "    y0 = height_bg/10\n",
    "    #\n",
    "    x1 = x0\n",
    "    y1 = height_bg\n",
    "    res.line([(int(x0), int(y0)), (int(x1), int(y1))], fill=(200, 200, 200), width=4)\n",
    "\n",
    "    return res._image\n",
    "\n",
    "\n",
    "def add_text(img_in, plot_time):\n",
    "    width_bg, height_bg = img_in.size\n",
    "\n",
    "    res = ImageDraw.Draw(img_in)\n",
    "\n",
    "    x = width_bg * 0.06\n",
    "    y = height_bg * 0.90\n",
    "    text = \"PLAYER MOVES\"\n",
    "    font = ImageFont.truetype('./Open_Sans/static/OpenSans/OpenSans-Medium.ttf', 60)\n",
    "    res.text((int(x), int(y)), text=text, font=font, fill=(0,0,0))\n",
    "\n",
    "    x = width_bg * 0.38\n",
    "    text = \"WORKSPACE\"\n",
    "    res.text((int(x), int(y)), text=text, font=font, fill=(0,0,0))\n",
    "\n",
    "    x = width_bg * 0.75\n",
    "    text = \"C-SPACE (3D|2D)\"\n",
    "    res.text((int(x), int(y)), text=text, font=font, fill=(0,0,0))\n",
    "\n",
    "    x = width_bg * 0.43\n",
    "    y = height_bg * 0.05\n",
    "\n",
    "    font = ImageFont.truetype('./Open_Sans/static/OpenSans/OpenSans-Medium.ttf', 80)\n",
    "    text = plot_time\n",
    "    res.text((int(x), int(y)), text=text, font=font, fill=(0,0,0))\n",
    "\n",
    "    return res._image"
   ]
  },
  {
   "cell_type": "code",
   "execution_count": 57,
   "metadata": {},
   "outputs": [],
   "source": [
    "def create_frame(file_workspace, file_v2d, file_v3d, file_inputs):\n",
    "    workspace = crop_workspace_or_C_space(file_workspace)\n",
    "    c_space = crop_workspace_or_C_space(file_v2d)\n",
    "    v_3d = crop_V3D(file_v3d)\n",
    "    u = crop_control(file_inputs)\n",
    "    d = crop_disturbance(file_inputs)\n",
    "\n",
    "    plot_time = file_workspace[file_workspace.find('_t=')+1: file_workspace.find('.png')] \n",
    "    \n",
    "    im = Image.open(file_workspace)\n",
    "    width_bg, height_bg = im.size\n",
    "    BUTTON_LABEL_SIZE = height_bg/6\n",
    "    height_bg += BUTTON_LABEL_SIZE\n",
    "\n",
    "    width_bg = width_bg + 1 if width_bg % 2 != 0 else width_bg\n",
    "    height_bg = height_bg + 1 if height_bg % 2 != 0 else height_bg\n",
    "\n",
    "    background = Image.new(\"RGB\", (int(width_bg), int(height_bg)), (255, 255, 255))\n",
    "\n",
    "    workspace = resize_workspace(workspace, width_bg, height_bg)\n",
    "    c_space = resize_c_space(c_space, width_bg, height_bg)\n",
    "    v_3d = resize_V3D(v_3d, width_bg, height_bg)\n",
    "    u = resize_u(u, width_bg, height_bg)\n",
    "    d = resize_d(d, width_bg, height_bg)\n",
    "\n",
    "    res = place_workspace(workspace, background, BUTTON_LABEL_SIZE)\n",
    "    res = place_c_space(c_space, res, BUTTON_LABEL_SIZE)\n",
    "    res = place_u(u, res, BUTTON_LABEL_SIZE)\n",
    "    res = place_d(d, res, BUTTON_LABEL_SIZE)\n",
    "    res = place_V3D(v_3d, res, BUTTON_LABEL_SIZE)\n",
    "\n",
    "    res = add_lines(res)\n",
    "    res = add_text(res, plot_time)\n",
    "\n",
    "    return res"
   ]
  },
  {
   "cell_type": "code",
   "execution_count": 58,
   "metadata": {},
   "outputs": [],
   "source": [
    "def create_frames_folder(root_folder):\n",
    "    folder_in_inputs = os.path.join(root_folder, FOLDER_IN_INPUTS)\n",
    "    list_file_inputs = sorted(os.listdir(folder_in_inputs))\n",
    "    list_file_inputs = list(filter(lambda x: '.png' in x, list_file_inputs))\n",
    "    list_file_inputs = list_file_inputs + [list_file_inputs[-1]]\n",
    "    list_file_inputs = [list_file_inputs[0]]*9 + list_file_inputs + [list_file_inputs[-1]]*9\n",
    "\n",
    "    folder_in_v_2d = os.path.join(root_folder, FOLDER_IN_V_2D)\n",
    "    list_file_v2d = sorted(os.listdir(folder_in_v_2d))\n",
    "    list_file_v2d = list(filter(lambda x: '.png' in x, list_file_v2d))\n",
    "    list_file_v2d = [list_file_v2d[0]]*9 + list_file_v2d + [list_file_v2d[-1]]*9\n",
    "\n",
    "    folder_in_v3d = os.path.join(root_folder, FOLDER_IN_V_3D)\n",
    "    list_file_v3d = sorted(os.listdir(folder_in_v3d), reverse=True)\n",
    "    list_file_v3d = list(filter(lambda x: '.png' in x, list_file_v3d))\n",
    "    list_file_v3d = list_file_v3d[1:] + [list_file_v3d[0]]\n",
    "    list_file_v3d = [list_file_v3d[0]]*9 + list_file_v3d + [list_file_v3d[-1]]*9\n",
    "\n",
    "    folder_in_workspace = os.path.join(root_folder, FOLDER_IN_WORKSPACE)\n",
    "    list_file_workspace = sorted(os.listdir(folder_in_workspace))\n",
    "    list_file_workspace = list(filter(lambda x: '.png' in x, list_file_workspace))\n",
    "    list_file_workspace = [list_file_workspace[0]]*9 + list_file_workspace + [list_file_workspace[-1]]*9\n",
    "\n",
    "    folder_out = os.path.join(root_folder, FOLDER_OUT)\n",
    "    if not os.path.isdir(folder_out):\n",
    "        os.makedirs(folder_out)\n",
    "\n",
    "    for i, (file_inputs, file_v2d, file_v3d, file_workspace) in enumerate(zip(list_file_inputs, list_file_v2d, list_file_v3d, list_file_workspace)):\n",
    "        file_workspace = os.path.join(folder_in_workspace, file_workspace)\n",
    "        file_v2d = os.path.join(folder_in_v_2d, file_v2d)\n",
    "        file_v3d = os.path.join(folder_in_v3d, file_v3d)\n",
    "        file_inputs = os.path.join(folder_in_inputs, file_inputs)\n",
    "        \n",
    "        res = create_frame(file_workspace, file_v2d, file_v3d, file_inputs)\n",
    "        filename = 'frame_' + str(i).zfill(4) + '.png'\n",
    "\n",
    "        res.save(os.path.join(folder_out, filename))"
   ]
  },
  {
   "cell_type": "code",
   "execution_count": 59,
   "metadata": {},
   "outputs": [],
   "source": [
    "!#ffmpeg -framerate 3 -i ./OUT_FRAMES/frame_%04d.png -c:v libx264 -profile:v high -crf 20 -pix_fmt yuv420p output.mp4"
   ]
  },
  {
   "cell_type": "code",
   "execution_count": 60,
   "metadata": {},
   "outputs": [],
   "source": [
    "def get_list_dirs_experiments(current_folder, list_out, required_folders):\n",
    "    items = os.listdir(current_folder)\n",
    "    subfolders = list(filter(lambda x: os.path.isdir(os.path.join(current_folder, x)), items))\n",
    "\n",
    "    there_are_all_req = sum([1 if req_f in subfolders else 0 for req_f in required_folders]) == len(required_folders)\n",
    "    if there_are_all_req:\n",
    "        list_out.append(current_folder)\n",
    "    \n",
    "    for folder in subfolders:\n",
    "        new_current_folder = os.path.join(current_folder, folder)\n",
    "        list_out = get_list_dirs_experiments(new_current_folder, list_out, required_folders)\n",
    "\n",
    "    return list_out"
   ]
  },
  {
   "cell_type": "code",
   "execution_count": 61,
   "metadata": {},
   "outputs": [
    {
     "name": "stdout",
     "output_type": "stream",
     "text": [
      "./static_env/optimal/static_start_bottom\n"
     ]
    },
    {
     "name": "stderr",
     "output_type": "stream",
     "text": [
      "ffmpeg version 4.2.7-0ubuntu0.1 Copyright (c) 2000-2022 the FFmpeg developers\n",
      "  built with gcc 9 (Ubuntu 9.4.0-1ubuntu1~20.04.1)\n",
      "  configuration: --prefix=/usr --extra-version=0ubuntu0.1 --toolchain=hardened --libdir=/usr/lib/x86_64-linux-gnu --incdir=/usr/include/x86_64-linux-gnu --arch=amd64 --enable-gpl --disable-stripping --enable-avresample --disable-filter=resample --enable-avisynth --enable-gnutls --enable-ladspa --enable-libaom --enable-libass --enable-libbluray --enable-libbs2b --enable-libcaca --enable-libcdio --enable-libcodec2 --enable-libflite --enable-libfontconfig --enable-libfreetype --enable-libfribidi --enable-libgme --enable-libgsm --enable-libjack --enable-libmp3lame --enable-libmysofa --enable-libopenjpeg --enable-libopenmpt --enable-libopus --enable-libpulse --enable-librsvg --enable-librubberband --enable-libshine --enable-libsnappy --enable-libsoxr --enable-libspeex --enable-libssh --enable-libtheora --enable-libtwolame --enable-libvidstab --enable-libvorbis --enable-libvpx --enable-libwavpack --enable-libwebp --enable-libx265 --enable-libxml2 --enable-libxvid --enable-libzmq --enable-libzvbi --enable-lv2 --enable-omx --enable-openal --enable-opencl --enable-opengl --enable-sdl2 --enable-libdc1394 --enable-libdrm --enable-libiec61883 --enable-nvenc --enable-chromaprint --enable-frei0r --enable-libx264 --enable-shared\n",
      "  libavutil      56. 31.100 / 56. 31.100\n",
      "  libavcodec     58. 54.100 / 58. 54.100\n",
      "  libavformat    58. 29.100 / 58. 29.100\n",
      "  libavdevice    58.  8.100 / 58.  8.100\n",
      "  libavfilter     7. 57.100 /  7. 57.100\n",
      "  libavresample   4.  0.  0 /  4.  0.  0\n",
      "  libswscale      5.  5.100 /  5.  5.100\n",
      "  libswresample   3.  5.100 /  3.  5.100\n",
      "  libpostproc    55.  5.100 / 55.  5.100\n",
      "Input #0, image2, from './static_env/optimal/static_start_bottom/OUT_FRAMES/frame_%04d.png':\n",
      "  Duration: 00:00:16.00, start: 0.000000, bitrate: N/A\n",
      "    Stream #0:0: Video: png, rgb24(pc), 3000x1802, 3 fps, 3 tbr, 3 tbn, 3 tbc\n",
      "Stream mapping:\n",
      "  Stream #0:0 -> #0:0 (png (native) -> h264 (libx264))\n",
      "Press [q] to stop, [?] for help\n",
      "[libx264 @ 0x555687c95180] using cpu capabilities: MMX2 SSE2Fast SSSE3 SSE4.2 AVX FMA3 BMI2 AVX2\n",
      "[libx264 @ 0x555687c95180] profile High, level 5.0\n",
      "[libx264 @ 0x555687c95180] 264 - core 155 r2917 0a84d98 - H.264/MPEG-4 AVC codec - Copyleft 2003-2018 - http://www.videolan.org/x264.html - options: cabac=1 ref=3 deblock=1:0:0 analyse=0x3:0x113 me=hex subme=7 psy=1 psy_rd=1.00:0.00 mixed_ref=1 me_range=16 chroma_me=1 trellis=1 8x8dct=1 cqm=0 deadzone=21,11 fast_pskip=1 chroma_qp_offset=-2 threads=18 lookahead_threads=3 sliced_threads=0 nr=0 decimate=1 interlaced=0 bluray_compat=0 constrained_intra=0 bframes=3 b_pyramid=2 b_adapt=1 b_bias=0 direct=1 weightb=1 open_gop=0 weightp=2 keyint=250 keyint_min=3 scenecut=40 intra_refresh=0 rc_lookahead=40 rc=crf mbtree=1 crf=20.0 qcomp=0.60 qpmin=0 qpmax=69 qpstep=4 ip_ratio=1.40 aq=1:1.00\n",
      "Output #0, mp4, to './static_env/optimal/static_start_bottom/OUT_FRAMES/output.mp4':\n",
      "  Metadata:\n",
      "    encoder         : Lavf58.29.100\n",
      "    Stream #0:0: Video: h264 (libx264) (avc1 / 0x31637661), yuv420p, 3000x1802, q=-1--1, 3 fps, 12288 tbn, 3 tbc\n",
      "    Metadata:\n",
      "      encoder         : Lavc58.54.100 libx264\n",
      "    Side data:\n",
      "      cpb: bitrate max/min/avg: 0/0/0 buffer size: 0 vbv_delay: -1\n",
      "frame=   48 fps=7.8 q=-1.0 Lsize=     472kB time=00:00:15.00 bitrate= 257.8kbits/s speed=2.45x    \n",
      "video:471kB audio:0kB subtitle:0kB other streams:0kB global headers:0kB muxing overhead: 0.291774%\n",
      "[libx264 @ 0x555687c95180] frame I:1     Avg QP: 3.80  size:112574\n",
      "[libx264 @ 0x555687c95180] frame P:12    Avg QP: 8.35  size: 13507\n",
      "[libx264 @ 0x555687c95180] frame B:35    Avg QP:12.13  size:  5901\n",
      "[libx264 @ 0x555687c95180] consecutive B-frames:  2.1%  0.0%  6.2% 91.7%\n",
      "[libx264 @ 0x555687c95180] mb I  I16..4: 73.6% 17.2%  9.2%\n",
      "[libx264 @ 0x555687c95180] mb P  I16..4:  0.6%  0.2%  0.5%  P16..4:  0.7%  0.3%  0.2%  0.0%  0.0%    skip:97.6%\n",
      "[libx264 @ 0x555687c95180] mb B  I16..4:  0.0%  0.0%  0.1%  B16..8:  1.2%  0.3%  0.2%  direct: 0.1%  skip:98.2%  L0:48.2% L1:45.7% BI: 6.2%\n",
      "[libx264 @ 0x555687c95180] 8x8 transform intra:16.9% inter:9.4%\n",
      "[libx264 @ 0x555687c95180] coded y,uvDC,uvAC intra: 9.7% 7.7% 7.3% inter: 0.3% 0.5% 0.5%\n",
      "[libx264 @ 0x555687c95180] i16 v,h,dc,p: 90%  9%  1%  0%\n",
      "[libx264 @ 0x555687c95180] i8 v,h,dc,ddl,ddr,vr,hd,vl,hu: 53%  4% 43%  0%  0%  0%  0%  0%  0%\n",
      "[libx264 @ 0x555687c95180] i4 v,h,dc,ddl,ddr,vr,hd,vl,hu: 33% 25% 23%  4%  2%  3%  4%  3%  3%\n",
      "[libx264 @ 0x555687c95180] i8c dc,h,v,p: 91%  4%  4%  0%\n",
      "[libx264 @ 0x555687c95180] Weighted P-Frames: Y:0.0% UV:0.0%\n",
      "[libx264 @ 0x555687c95180] ref P L0: 72.3%  4.4% 16.0%  7.4%\n",
      "[libx264 @ 0x555687c95180] ref B L0: 84.1% 13.0%  2.9%\n",
      "[libx264 @ 0x555687c95180] ref B L1: 95.1%  4.9%\n",
      "[libx264 @ 0x555687c95180] kb/s:240.59\n"
     ]
    },
    {
     "name": "stdout",
     "output_type": "stream",
     "text": [
      "./static_env/random/static_start_bottom\n"
     ]
    },
    {
     "name": "stderr",
     "output_type": "stream",
     "text": [
      "ffmpeg version 4.2.7-0ubuntu0.1 Copyright (c) 2000-2022 the FFmpeg developers\n",
      "  built with gcc 9 (Ubuntu 9.4.0-1ubuntu1~20.04.1)\n",
      "  configuration: --prefix=/usr --extra-version=0ubuntu0.1 --toolchain=hardened --libdir=/usr/lib/x86_64-linux-gnu --incdir=/usr/include/x86_64-linux-gnu --arch=amd64 --enable-gpl --disable-stripping --enable-avresample --disable-filter=resample --enable-avisynth --enable-gnutls --enable-ladspa --enable-libaom --enable-libass --enable-libbluray --enable-libbs2b --enable-libcaca --enable-libcdio --enable-libcodec2 --enable-libflite --enable-libfontconfig --enable-libfreetype --enable-libfribidi --enable-libgme --enable-libgsm --enable-libjack --enable-libmp3lame --enable-libmysofa --enable-libopenjpeg --enable-libopenmpt --enable-libopus --enable-libpulse --enable-librsvg --enable-librubberband --enable-libshine --enable-libsnappy --enable-libsoxr --enable-libspeex --enable-libssh --enable-libtheora --enable-libtwolame --enable-libvidstab --enable-libvorbis --enable-libvpx --enable-libwavpack --enable-libwebp --enable-libx265 --enable-libxml2 --enable-libxvid --enable-libzmq --enable-libzvbi --enable-lv2 --enable-omx --enable-openal --enable-opencl --enable-opengl --enable-sdl2 --enable-libdc1394 --enable-libdrm --enable-libiec61883 --enable-nvenc --enable-chromaprint --enable-frei0r --enable-libx264 --enable-shared\n",
      "  libavutil      56. 31.100 / 56. 31.100\n",
      "  libavcodec     58. 54.100 / 58. 54.100\n",
      "  libavformat    58. 29.100 / 58. 29.100\n",
      "  libavdevice    58.  8.100 / 58.  8.100\n",
      "  libavfilter     7. 57.100 /  7. 57.100\n",
      "  libavresample   4.  0.  0 /  4.  0.  0\n",
      "  libswscale      5.  5.100 /  5.  5.100\n",
      "  libswresample   3.  5.100 /  3.  5.100\n",
      "  libpostproc    55.  5.100 / 55.  5.100\n",
      "Input #0, image2, from './static_env/random/static_start_bottom/OUT_FRAMES/frame_%04d.png':\n",
      "  Duration: 00:00:16.00, start: 0.000000, bitrate: N/A\n",
      "    Stream #0:0: Video: png, rgb24(pc), 3000x1802, 3 fps, 3 tbr, 3 tbn, 3 tbc\n",
      "Stream mapping:\n",
      "  Stream #0:0 -> #0:0 (png (native) -> h264 (libx264))\n",
      "Press [q] to stop, [?] for help\n",
      "[libx264 @ 0x5568b6efb180] using cpu capabilities: MMX2 SSE2Fast SSSE3 SSE4.2 AVX FMA3 BMI2 AVX2\n",
      "[libx264 @ 0x5568b6efb180] profile High, level 5.0\n",
      "[libx264 @ 0x5568b6efb180] 264 - core 155 r2917 0a84d98 - H.264/MPEG-4 AVC codec - Copyleft 2003-2018 - http://www.videolan.org/x264.html - options: cabac=1 ref=3 deblock=1:0:0 analyse=0x3:0x113 me=hex subme=7 psy=1 psy_rd=1.00:0.00 mixed_ref=1 me_range=16 chroma_me=1 trellis=1 8x8dct=1 cqm=0 deadzone=21,11 fast_pskip=1 chroma_qp_offset=-2 threads=18 lookahead_threads=3 sliced_threads=0 nr=0 decimate=1 interlaced=0 bluray_compat=0 constrained_intra=0 bframes=3 b_pyramid=2 b_adapt=1 b_bias=0 direct=1 weightb=1 open_gop=0 weightp=2 keyint=250 keyint_min=3 scenecut=40 intra_refresh=0 rc_lookahead=40 rc=crf mbtree=1 crf=20.0 qcomp=0.60 qpmin=0 qpmax=69 qpstep=4 ip_ratio=1.40 aq=1:1.00\n",
      "Output #0, mp4, to './static_env/random/static_start_bottom/OUT_FRAMES/output.mp4':\n",
      "  Metadata:\n",
      "    encoder         : Lavf58.29.100\n",
      "    Stream #0:0: Video: h264 (libx264) (avc1 / 0x31637661), yuv420p, 3000x1802, q=-1--1, 3 fps, 12288 tbn, 3 tbc\n",
      "    Metadata:\n",
      "      encoder         : Lavc58.54.100 libx264\n",
      "    Side data:\n",
      "      cpb: bitrate max/min/avg: 0/0/0 buffer size: 0 vbv_delay: -1\n",
      "frame=   48 fps=8.4 q=-1.0 Lsize=     487kB time=00:00:15.00 bitrate= 265.8kbits/s speed=2.63x    \n",
      "video:485kB audio:0kB subtitle:0kB other streams:0kB global headers:0kB muxing overhead: 0.282922%\n",
      "[libx264 @ 0x5568b6efb180] frame I:1     Avg QP: 4.50  size:114253\n",
      "[libx264 @ 0x5568b6efb180] frame P:12    Avg QP: 8.22  size: 13862\n",
      "[libx264 @ 0x5568b6efb180] frame B:35    Avg QP:12.04  size:  6162\n",
      "[libx264 @ 0x5568b6efb180] consecutive B-frames:  2.1%  0.0%  6.2% 91.7%\n",
      "[libx264 @ 0x5568b6efb180] mb I  I16..4: 68.0% 22.6%  9.4%\n",
      "[libx264 @ 0x5568b6efb180] mb P  I16..4:  0.7%  0.2%  0.5%  P16..4:  0.6%  0.3%  0.2%  0.0%  0.0%    skip:97.5%\n",
      "[libx264 @ 0x5568b6efb180] mb B  I16..4:  0.0%  0.0%  0.1%  B16..8:  1.2%  0.3%  0.2%  direct: 0.1%  skip:98.1%  L0:47.5% L1:45.8% BI: 6.7%\n",
      "[libx264 @ 0x5568b6efb180] 8x8 transform intra:20.5% inter:10.0%\n",
      "[libx264 @ 0x5568b6efb180] coded y,uvDC,uvAC intra: 10.2% 8.2% 7.9% inter: 0.4% 0.5% 0.5%\n",
      "[libx264 @ 0x5568b6efb180] i16 v,h,dc,p: 89%  9%  1%  0%\n",
      "[libx264 @ 0x5568b6efb180] i8 v,h,dc,ddl,ddr,vr,hd,vl,hu: 52%  5% 43%  0%  0%  0%  0%  0%  0%\n",
      "[libx264 @ 0x5568b6efb180] i4 v,h,dc,ddl,ddr,vr,hd,vl,hu: 33% 26% 22%  3%  2%  3%  4%  4%  3%\n",
      "[libx264 @ 0x5568b6efb180] i8c dc,h,v,p: 91%  4%  4%  0%\n",
      "[libx264 @ 0x5568b6efb180] Weighted P-Frames: Y:0.0% UV:0.0%\n",
      "[libx264 @ 0x5568b6efb180] ref P L0: 71.1%  4.9% 16.8%  7.1%\n",
      "[libx264 @ 0x5568b6efb180] ref B L0: 84.1% 13.3%  2.6%\n",
      "[libx264 @ 0x5568b6efb180] ref B L1: 95.4%  4.6%\n",
      "[libx264 @ 0x5568b6efb180] kb/s:248.13\n"
     ]
    },
    {
     "name": "stdout",
     "output_type": "stream",
     "text": [
      "./dynamic_env/optimal/dynamic_faraway\n"
     ]
    },
    {
     "name": "stderr",
     "output_type": "stream",
     "text": [
      "ffmpeg version 4.2.7-0ubuntu0.1 Copyright (c) 2000-2022 the FFmpeg developers\n",
      "  built with gcc 9 (Ubuntu 9.4.0-1ubuntu1~20.04.1)\n",
      "  configuration: --prefix=/usr --extra-version=0ubuntu0.1 --toolchain=hardened --libdir=/usr/lib/x86_64-linux-gnu --incdir=/usr/include/x86_64-linux-gnu --arch=amd64 --enable-gpl --disable-stripping --enable-avresample --disable-filter=resample --enable-avisynth --enable-gnutls --enable-ladspa --enable-libaom --enable-libass --enable-libbluray --enable-libbs2b --enable-libcaca --enable-libcdio --enable-libcodec2 --enable-libflite --enable-libfontconfig --enable-libfreetype --enable-libfribidi --enable-libgme --enable-libgsm --enable-libjack --enable-libmp3lame --enable-libmysofa --enable-libopenjpeg --enable-libopenmpt --enable-libopus --enable-libpulse --enable-librsvg --enable-librubberband --enable-libshine --enable-libsnappy --enable-libsoxr --enable-libspeex --enable-libssh --enable-libtheora --enable-libtwolame --enable-libvidstab --enable-libvorbis --enable-libvpx --enable-libwavpack --enable-libwebp --enable-libx265 --enable-libxml2 --enable-libxvid --enable-libzmq --enable-libzvbi --enable-lv2 --enable-omx --enable-openal --enable-opencl --enable-opengl --enable-sdl2 --enable-libdc1394 --enable-libdrm --enable-libiec61883 --enable-nvenc --enable-chromaprint --enable-frei0r --enable-libx264 --enable-shared\n",
      "  libavutil      56. 31.100 / 56. 31.100\n",
      "  libavcodec     58. 54.100 / 58. 54.100\n",
      "  libavformat    58. 29.100 / 58. 29.100\n",
      "  libavdevice    58.  8.100 / 58.  8.100\n",
      "  libavfilter     7. 57.100 /  7. 57.100\n",
      "  libavresample   4.  0.  0 /  4.  0.  0\n",
      "  libswscale      5.  5.100 /  5.  5.100\n",
      "  libswresample   3.  5.100 /  3.  5.100\n",
      "  libpostproc    55.  5.100 / 55.  5.100\n",
      "Input #0, image2, from './dynamic_env/optimal/dynamic_faraway/OUT_FRAMES/frame_%04d.png':\n",
      "  Duration: 00:00:16.00, start: 0.000000, bitrate: N/A\n",
      "    Stream #0:0: Video: png, rgb24(pc), 3000x1802, 3 fps, 3 tbr, 3 tbn, 3 tbc\n",
      "Stream mapping:\n",
      "  Stream #0:0 -> #0:0 (png (native) -> h264 (libx264))\n",
      "Press [q] to stop, [?] for help\n",
      "[libx264 @ 0x55d8b8b78180] using cpu capabilities: MMX2 SSE2Fast SSSE3 SSE4.2 AVX FMA3 BMI2 AVX2\n",
      "[libx264 @ 0x55d8b8b78180] profile High, level 5.0\n",
      "[libx264 @ 0x55d8b8b78180] 264 - core 155 r2917 0a84d98 - H.264/MPEG-4 AVC codec - Copyleft 2003-2018 - http://www.videolan.org/x264.html - options: cabac=1 ref=3 deblock=1:0:0 analyse=0x3:0x113 me=hex subme=7 psy=1 psy_rd=1.00:0.00 mixed_ref=1 me_range=16 chroma_me=1 trellis=1 8x8dct=1 cqm=0 deadzone=21,11 fast_pskip=1 chroma_qp_offset=-2 threads=18 lookahead_threads=3 sliced_threads=0 nr=0 decimate=1 interlaced=0 bluray_compat=0 constrained_intra=0 bframes=3 b_pyramid=2 b_adapt=1 b_bias=0 direct=1 weightb=1 open_gop=0 weightp=2 keyint=250 keyint_min=3 scenecut=40 intra_refresh=0 rc_lookahead=40 rc=crf mbtree=1 crf=20.0 qcomp=0.60 qpmin=0 qpmax=69 qpstep=4 ip_ratio=1.40 aq=1:1.00\n",
      "Output #0, mp4, to './dynamic_env/optimal/dynamic_faraway/OUT_FRAMES/output.mp4':\n",
      "  Metadata:\n",
      "    encoder         : Lavf58.29.100\n",
      "    Stream #0:0: Video: h264 (libx264) (avc1 / 0x31637661), yuv420p, 3000x1802, q=-1--1, 3 fps, 12288 tbn, 3 tbc\n",
      "    Metadata:\n",
      "      encoder         : Lavc58.54.100 libx264\n",
      "    Side data:\n",
      "      cpb: bitrate max/min/avg: 0/0/0 buffer size: 0 vbv_delay: -1\n",
      "frame=   48 fps= 15 q=-1.0 Lsize=     429kB time=00:00:15.00 bitrate= 234.5kbits/s speed=4.74x    \n",
      "video:428kB audio:0kB subtitle:0kB other streams:0kB global headers:0kB muxing overhead: 0.322559%\n",
      "[libx264 @ 0x55d8b8b78180] frame I:1     Avg QP: 3.77  size: 98684\n",
      "[libx264 @ 0x55d8b8b78180] frame P:14    Avg QP: 8.02  size: 11796\n",
      "[libx264 @ 0x55d8b8b78180] frame B:33    Avg QP:12.23  size:  5268\n",
      "[libx264 @ 0x55d8b8b78180] consecutive B-frames:  4.2% 12.5%  0.0% 83.3%\n",
      "[libx264 @ 0x55d8b8b78180] mb I  I16..4: 71.9% 19.4%  8.7%\n",
      "[libx264 @ 0x55d8b8b78180] mb P  I16..4:  0.8%  0.1%  0.4%  P16..4:  0.7%  0.3%  0.2%  0.0%  0.0%    skip:97.5%\n",
      "[libx264 @ 0x55d8b8b78180] mb B  I16..4:  0.2%  0.0%  0.1%  B16..8:  1.1%  0.3%  0.2%  direct: 0.1%  skip:98.2%  L0:45.3% L1:48.3% BI: 6.4%\n",
      "[libx264 @ 0x55d8b8b78180] 8x8 transform intra:16.9% inter:10.0%\n",
      "[libx264 @ 0x55d8b8b78180] coded y,uvDC,uvAC intra: 9.2% 7.4% 6.7% inter: 0.3% 0.4% 0.4%\n",
      "[libx264 @ 0x55d8b8b78180] i16 v,h,dc,p: 84% 15%  1%  0%\n",
      "[libx264 @ 0x55d8b8b78180] i8 v,h,dc,ddl,ddr,vr,hd,vl,hu: 48%  3% 48%  0%  0%  0%  0%  0%  0%\n",
      "[libx264 @ 0x55d8b8b78180] i4 v,h,dc,ddl,ddr,vr,hd,vl,hu: 34% 28% 22%  3%  2%  3%  3%  3%  3%\n",
      "[libx264 @ 0x55d8b8b78180] i8c dc,h,v,p: 88%  8%  3%  0%\n",
      "[libx264 @ 0x55d8b8b78180] Weighted P-Frames: Y:0.0% UV:0.0%\n",
      "[libx264 @ 0x55d8b8b78180] ref P L0: 68.4%  3.7% 18.7%  9.2%\n",
      "[libx264 @ 0x55d8b8b78180] ref B L0: 79.5% 15.2%  5.3%\n",
      "[libx264 @ 0x55d8b8b78180] ref B L1: 95.3%  4.7%\n",
      "[libx264 @ 0x55d8b8b78180] kb/s:218.84\n"
     ]
    },
    {
     "name": "stdout",
     "output_type": "stream",
     "text": [
      "./dynamic_env/optimal/dynamic_closer\n"
     ]
    },
    {
     "name": "stderr",
     "output_type": "stream",
     "text": [
      "ffmpeg version 4.2.7-0ubuntu0.1 Copyright (c) 2000-2022 the FFmpeg developers\n",
      "  built with gcc 9 (Ubuntu 9.4.0-1ubuntu1~20.04.1)\n",
      "  configuration: --prefix=/usr --extra-version=0ubuntu0.1 --toolchain=hardened --libdir=/usr/lib/x86_64-linux-gnu --incdir=/usr/include/x86_64-linux-gnu --arch=amd64 --enable-gpl --disable-stripping --enable-avresample --disable-filter=resample --enable-avisynth --enable-gnutls --enable-ladspa --enable-libaom --enable-libass --enable-libbluray --enable-libbs2b --enable-libcaca --enable-libcdio --enable-libcodec2 --enable-libflite --enable-libfontconfig --enable-libfreetype --enable-libfribidi --enable-libgme --enable-libgsm --enable-libjack --enable-libmp3lame --enable-libmysofa --enable-libopenjpeg --enable-libopenmpt --enable-libopus --enable-libpulse --enable-librsvg --enable-librubberband --enable-libshine --enable-libsnappy --enable-libsoxr --enable-libspeex --enable-libssh --enable-libtheora --enable-libtwolame --enable-libvidstab --enable-libvorbis --enable-libvpx --enable-libwavpack --enable-libwebp --enable-libx265 --enable-libxml2 --enable-libxvid --enable-libzmq --enable-libzvbi --enable-lv2 --enable-omx --enable-openal --enable-opencl --enable-opengl --enable-sdl2 --enable-libdc1394 --enable-libdrm --enable-libiec61883 --enable-nvenc --enable-chromaprint --enable-frei0r --enable-libx264 --enable-shared\n",
      "  libavutil      56. 31.100 / 56. 31.100\n",
      "  libavcodec     58. 54.100 / 58. 54.100\n",
      "  libavformat    58. 29.100 / 58. 29.100\n",
      "  libavdevice    58.  8.100 / 58.  8.100\n",
      "  libavfilter     7. 57.100 /  7. 57.100\n",
      "  libavresample   4.  0.  0 /  4.  0.  0\n",
      "  libswscale      5.  5.100 /  5.  5.100\n",
      "  libswresample   3.  5.100 /  3.  5.100\n",
      "  libpostproc    55.  5.100 / 55.  5.100\n",
      "Input #0, image2, from './dynamic_env/optimal/dynamic_closer/OUT_FRAMES/frame_%04d.png':\n",
      "  Duration: 00:00:16.00, start: 0.000000, bitrate: N/A\n",
      "    Stream #0:0: Video: png, rgb24(pc), 3000x1802, 3 fps, 3 tbr, 3 tbn, 3 tbc\n",
      "Stream mapping:\n",
      "  Stream #0:0 -> #0:0 (png (native) -> h264 (libx264))\n",
      "Press [q] to stop, [?] for help\n",
      "[libx264 @ 0x563150abb180] using cpu capabilities: MMX2 SSE2Fast SSSE3 SSE4.2 AVX FMA3 BMI2 AVX2\n",
      "[libx264 @ 0x563150abb180] profile High, level 5.0\n",
      "[libx264 @ 0x563150abb180] 264 - core 155 r2917 0a84d98 - H.264/MPEG-4 AVC codec - Copyleft 2003-2018 - http://www.videolan.org/x264.html - options: cabac=1 ref=3 deblock=1:0:0 analyse=0x3:0x113 me=hex subme=7 psy=1 psy_rd=1.00:0.00 mixed_ref=1 me_range=16 chroma_me=1 trellis=1 8x8dct=1 cqm=0 deadzone=21,11 fast_pskip=1 chroma_qp_offset=-2 threads=18 lookahead_threads=3 sliced_threads=0 nr=0 decimate=1 interlaced=0 bluray_compat=0 constrained_intra=0 bframes=3 b_pyramid=2 b_adapt=1 b_bias=0 direct=1 weightb=1 open_gop=0 weightp=2 keyint=250 keyint_min=3 scenecut=40 intra_refresh=0 rc_lookahead=40 rc=crf mbtree=1 crf=20.0 qcomp=0.60 qpmin=0 qpmax=69 qpstep=4 ip_ratio=1.40 aq=1:1.00\n",
      "Output #0, mp4, to './dynamic_env/optimal/dynamic_closer/OUT_FRAMES/output.mp4':\n",
      "  Metadata:\n",
      "    encoder         : Lavf58.29.100\n",
      "    Stream #0:0: Video: h264 (libx264) (avc1 / 0x31637661), yuv420p, 3000x1802, q=-1--1, 3 fps, 12288 tbn, 3 tbc\n",
      "    Metadata:\n",
      "      encoder         : Lavc58.54.100 libx264\n",
      "    Side data:\n",
      "      cpb: bitrate max/min/avg: 0/0/0 buffer size: 0 vbv_delay: -1\n",
      "frame=   48 fps= 14 q=-1.0 Lsize=     436kB time=00:00:15.00 bitrate= 238.1kbits/s speed=4.37x    \n",
      "video:435kB audio:0kB subtitle:0kB other streams:0kB global headers:0kB muxing overhead: 0.317713%\n",
      "[libx264 @ 0x563150abb180] frame I:1     Avg QP: 3.87  size:100466\n",
      "[libx264 @ 0x563150abb180] frame P:13    Avg QP: 9.72  size: 12557\n",
      "[libx264 @ 0x563150abb180] frame B:34    Avg QP:12.53  size:  5313\n",
      "[libx264 @ 0x563150abb180] consecutive B-frames:  4.2%  4.2%  0.0% 91.7%\n",
      "[libx264 @ 0x563150abb180] mb I  I16..4: 71.4% 19.8%  8.8%\n",
      "[libx264 @ 0x563150abb180] mb P  I16..4:  0.7%  0.2%  0.4%  P16..4:  0.7%  0.3%  0.2%  0.0%  0.0%    skip:97.5%\n",
      "[libx264 @ 0x563150abb180] mb B  I16..4:  0.2%  0.0%  0.1%  B16..8:  1.1%  0.3%  0.2%  direct: 0.1%  skip:98.1%  L0:45.5% L1:48.6% BI: 5.9%\n",
      "[libx264 @ 0x563150abb180] 8x8 transform intra:17.9% inter:12.2%\n",
      "[libx264 @ 0x563150abb180] coded y,uvDC,uvAC intra: 9.3% 7.7% 7.0% inter: 0.3% 0.4% 0.4%\n",
      "[libx264 @ 0x563150abb180] i16 v,h,dc,p: 84% 15%  1%  0%\n",
      "[libx264 @ 0x563150abb180] i8 v,h,dc,ddl,ddr,vr,hd,vl,hu: 40%  6% 53%  0%  0%  0%  0%  0%  0%\n",
      "[libx264 @ 0x563150abb180] i4 v,h,dc,ddl,ddr,vr,hd,vl,hu: 34% 28% 21%  3%  2%  3%  3%  3%  3%\n",
      "[libx264 @ 0x563150abb180] i8c dc,h,v,p: 88%  9%  3%  0%\n",
      "[libx264 @ 0x563150abb180] Weighted P-Frames: Y:0.0% UV:0.0%\n",
      "[libx264 @ 0x563150abb180] ref P L0: 70.1%  4.2% 18.3%  7.4%\n",
      "[libx264 @ 0x563150abb180] ref B L0: 80.0% 15.5%  4.5%\n",
      "[libx264 @ 0x563150abb180] ref B L1: 95.2%  4.8%\n",
      "[libx264 @ 0x563150abb180] kb/s:222.18\n"
     ]
    },
    {
     "name": "stdout",
     "output_type": "stream",
     "text": [
      "./dynamic_env/optimal/dynamic_outside_reach_avoid_set\n"
     ]
    },
    {
     "name": "stderr",
     "output_type": "stream",
     "text": [
      "ffmpeg version 4.2.7-0ubuntu0.1 Copyright (c) 2000-2022 the FFmpeg developers\n",
      "  built with gcc 9 (Ubuntu 9.4.0-1ubuntu1~20.04.1)\n",
      "  configuration: --prefix=/usr --extra-version=0ubuntu0.1 --toolchain=hardened --libdir=/usr/lib/x86_64-linux-gnu --incdir=/usr/include/x86_64-linux-gnu --arch=amd64 --enable-gpl --disable-stripping --enable-avresample --disable-filter=resample --enable-avisynth --enable-gnutls --enable-ladspa --enable-libaom --enable-libass --enable-libbluray --enable-libbs2b --enable-libcaca --enable-libcdio --enable-libcodec2 --enable-libflite --enable-libfontconfig --enable-libfreetype --enable-libfribidi --enable-libgme --enable-libgsm --enable-libjack --enable-libmp3lame --enable-libmysofa --enable-libopenjpeg --enable-libopenmpt --enable-libopus --enable-libpulse --enable-librsvg --enable-librubberband --enable-libshine --enable-libsnappy --enable-libsoxr --enable-libspeex --enable-libssh --enable-libtheora --enable-libtwolame --enable-libvidstab --enable-libvorbis --enable-libvpx --enable-libwavpack --enable-libwebp --enable-libx265 --enable-libxml2 --enable-libxvid --enable-libzmq --enable-libzvbi --enable-lv2 --enable-omx --enable-openal --enable-opencl --enable-opengl --enable-sdl2 --enable-libdc1394 --enable-libdrm --enable-libiec61883 --enable-nvenc --enable-chromaprint --enable-frei0r --enable-libx264 --enable-shared\n",
      "  libavutil      56. 31.100 / 56. 31.100\n",
      "  libavcodec     58. 54.100 / 58. 54.100\n",
      "  libavformat    58. 29.100 / 58. 29.100\n",
      "  libavdevice    58.  8.100 / 58.  8.100\n",
      "  libavfilter     7. 57.100 /  7. 57.100\n",
      "  libavresample   4.  0.  0 /  4.  0.  0\n",
      "  libswscale      5.  5.100 /  5.  5.100\n",
      "  libswresample   3.  5.100 /  3.  5.100\n",
      "  libpostproc    55.  5.100 / 55.  5.100\n",
      "Input #0, image2, from './dynamic_env/optimal/dynamic_outside_reach_avoid_set/OUT_FRAMES/frame_%04d.png':\n",
      "  Duration: 00:00:16.00, start: 0.000000, bitrate: N/A\n",
      "    Stream #0:0: Video: png, rgb24(pc), 3000x1802, 3 fps, 3 tbr, 3 tbn, 3 tbc\n",
      "Stream mapping:\n",
      "  Stream #0:0 -> #0:0 (png (native) -> h264 (libx264))\n",
      "Press [q] to stop, [?] for help\n",
      "[libx264 @ 0x55d036f76a80] using cpu capabilities: MMX2 SSE2Fast SSSE3 SSE4.2 AVX FMA3 BMI2 AVX2\n",
      "[libx264 @ 0x55d036f76a80] profile High, level 5.0\n",
      "[libx264 @ 0x55d036f76a80] 264 - core 155 r2917 0a84d98 - H.264/MPEG-4 AVC codec - Copyleft 2003-2018 - http://www.videolan.org/x264.html - options: cabac=1 ref=3 deblock=1:0:0 analyse=0x3:0x113 me=hex subme=7 psy=1 psy_rd=1.00:0.00 mixed_ref=1 me_range=16 chroma_me=1 trellis=1 8x8dct=1 cqm=0 deadzone=21,11 fast_pskip=1 chroma_qp_offset=-2 threads=18 lookahead_threads=3 sliced_threads=0 nr=0 decimate=1 interlaced=0 bluray_compat=0 constrained_intra=0 bframes=3 b_pyramid=2 b_adapt=1 b_bias=0 direct=1 weightb=1 open_gop=0 weightp=2 keyint=250 keyint_min=3 scenecut=40 intra_refresh=0 rc_lookahead=40 rc=crf mbtree=1 crf=20.0 qcomp=0.60 qpmin=0 qpmax=69 qpstep=4 ip_ratio=1.40 aq=1:1.00\n",
      "Output #0, mp4, to './dynamic_env/optimal/dynamic_outside_reach_avoid_set/OUT_FRAMES/output.mp4':\n",
      "  Metadata:\n",
      "    encoder         : Lavf58.29.100\n",
      "    Stream #0:0: Video: h264 (libx264) (avc1 / 0x31637661), yuv420p, 3000x1802, q=-1--1, 3 fps, 12288 tbn, 3 tbc\n",
      "    Metadata:\n",
      "      encoder         : Lavc58.54.100 libx264\n",
      "    Side data:\n",
      "      cpb: bitrate max/min/avg: 0/0/0 buffer size: 0 vbv_delay: -1\n",
      "frame=   48 fps= 20 q=-1.0 Lsize=     396kB time=00:00:15.00 bitrate= 216.1kbits/s speed=6.15x    \n",
      "video:394kB audio:0kB subtitle:0kB other streams:0kB global headers:0kB muxing overhead: 0.350258%\n",
      "[libx264 @ 0x55d036f76a80] frame I:1     Avg QP: 3.45  size: 93818\n",
      "[libx264 @ 0x55d036f76a80] frame P:13    Avg QP: 9.27  size: 10805\n",
      "[libx264 @ 0x55d036f76a80] frame B:34    Avg QP:12.75  size:  4963\n",
      "[libx264 @ 0x55d036f76a80] consecutive B-frames:  4.2%  4.2%  0.0% 91.7%\n",
      "[libx264 @ 0x55d036f76a80] mb I  I16..4: 75.9% 15.7%  8.4%\n",
      "[libx264 @ 0x55d036f76a80] mb P  I16..4:  0.8%  0.1%  0.3%  P16..4:  0.7%  0.3%  0.2%  0.0%  0.0%    skip:97.5%\n",
      "[libx264 @ 0x55d036f76a80] mb B  I16..4:  0.2%  0.0%  0.1%  B16..8:  1.1%  0.3%  0.1%  direct: 0.1%  skip:98.2%  L0:44.7% L1:49.3% BI: 6.0%\n",
      "[libx264 @ 0x55d036f76a80] 8x8 transform intra:14.1% inter:11.1%\n",
      "[libx264 @ 0x55d036f76a80] coded y,uvDC,uvAC intra: 8.4% 6.6% 5.9% inter: 0.3% 0.4% 0.4%\n",
      "[libx264 @ 0x55d036f76a80] i16 v,h,dc,p: 84% 15%  1%  0%\n",
      "[libx264 @ 0x55d036f76a80] i8 v,h,dc,ddl,ddr,vr,hd,vl,hu: 48%  3% 49%  0%  0%  0%  0%  0%  0%\n",
      "[libx264 @ 0x55d036f76a80] i4 v,h,dc,ddl,ddr,vr,hd,vl,hu: 34% 30% 21%  2%  2%  2%  3%  3%  3%\n",
      "[libx264 @ 0x55d036f76a80] i8c dc,h,v,p: 88%  9%  3%  0%\n",
      "[libx264 @ 0x55d036f76a80] Weighted P-Frames: Y:0.0% UV:0.0%\n",
      "[libx264 @ 0x55d036f76a80] ref P L0: 68.3%  4.1% 19.9%  7.7%\n",
      "[libx264 @ 0x55d036f76a80] ref B L0: 78.3% 16.5%  5.2%\n",
      "[libx264 @ 0x55d036f76a80] ref B L1: 95.0%  5.0%\n",
      "[libx264 @ 0x55d036f76a80] kb/s:201.51\n"
     ]
    },
    {
     "name": "stdout",
     "output_type": "stream",
     "text": [
      "./dynamic_env/random/dynamic_faraway\n"
     ]
    },
    {
     "name": "stderr",
     "output_type": "stream",
     "text": [
      "ffmpeg version 4.2.7-0ubuntu0.1 Copyright (c) 2000-2022 the FFmpeg developers\n",
      "  built with gcc 9 (Ubuntu 9.4.0-1ubuntu1~20.04.1)\n",
      "  configuration: --prefix=/usr --extra-version=0ubuntu0.1 --toolchain=hardened --libdir=/usr/lib/x86_64-linux-gnu --incdir=/usr/include/x86_64-linux-gnu --arch=amd64 --enable-gpl --disable-stripping --enable-avresample --disable-filter=resample --enable-avisynth --enable-gnutls --enable-ladspa --enable-libaom --enable-libass --enable-libbluray --enable-libbs2b --enable-libcaca --enable-libcdio --enable-libcodec2 --enable-libflite --enable-libfontconfig --enable-libfreetype --enable-libfribidi --enable-libgme --enable-libgsm --enable-libjack --enable-libmp3lame --enable-libmysofa --enable-libopenjpeg --enable-libopenmpt --enable-libopus --enable-libpulse --enable-librsvg --enable-librubberband --enable-libshine --enable-libsnappy --enable-libsoxr --enable-libspeex --enable-libssh --enable-libtheora --enable-libtwolame --enable-libvidstab --enable-libvorbis --enable-libvpx --enable-libwavpack --enable-libwebp --enable-libx265 --enable-libxml2 --enable-libxvid --enable-libzmq --enable-libzvbi --enable-lv2 --enable-omx --enable-openal --enable-opencl --enable-opengl --enable-sdl2 --enable-libdc1394 --enable-libdrm --enable-libiec61883 --enable-nvenc --enable-chromaprint --enable-frei0r --enable-libx264 --enable-shared\n",
      "  libavutil      56. 31.100 / 56. 31.100\n",
      "  libavcodec     58. 54.100 / 58. 54.100\n",
      "  libavformat    58. 29.100 / 58. 29.100\n",
      "  libavdevice    58.  8.100 / 58.  8.100\n",
      "  libavfilter     7. 57.100 /  7. 57.100\n",
      "  libavresample   4.  0.  0 /  4.  0.  0\n",
      "  libswscale      5.  5.100 /  5.  5.100\n",
      "  libswresample   3.  5.100 /  3.  5.100\n",
      "  libpostproc    55.  5.100 / 55.  5.100\n",
      "Input #0, image2, from './dynamic_env/random/dynamic_faraway/OUT_FRAMES/frame_%04d.png':\n",
      "  Duration: 00:00:16.00, start: 0.000000, bitrate: N/A\n",
      "    Stream #0:0: Video: png, rgb24(pc), 3000x1802, 3 fps, 3 tbr, 3 tbn, 3 tbc\n",
      "Stream mapping:\n",
      "  Stream #0:0 -> #0:0 (png (native) -> h264 (libx264))\n",
      "Press [q] to stop, [?] for help\n",
      "[libx264 @ 0x564f0cc13180] using cpu capabilities: MMX2 SSE2Fast SSSE3 SSE4.2 AVX FMA3 BMI2 AVX2\n",
      "[libx264 @ 0x564f0cc13180] profile High, level 5.0\n",
      "[libx264 @ 0x564f0cc13180] 264 - core 155 r2917 0a84d98 - H.264/MPEG-4 AVC codec - Copyleft 2003-2018 - http://www.videolan.org/x264.html - options: cabac=1 ref=3 deblock=1:0:0 analyse=0x3:0x113 me=hex subme=7 psy=1 psy_rd=1.00:0.00 mixed_ref=1 me_range=16 chroma_me=1 trellis=1 8x8dct=1 cqm=0 deadzone=21,11 fast_pskip=1 chroma_qp_offset=-2 threads=18 lookahead_threads=3 sliced_threads=0 nr=0 decimate=1 interlaced=0 bluray_compat=0 constrained_intra=0 bframes=3 b_pyramid=2 b_adapt=1 b_bias=0 direct=1 weightb=1 open_gop=0 weightp=2 keyint=250 keyint_min=3 scenecut=40 intra_refresh=0 rc_lookahead=40 rc=crf mbtree=1 crf=20.0 qcomp=0.60 qpmin=0 qpmax=69 qpstep=4 ip_ratio=1.40 aq=1:1.00\n",
      "Output #0, mp4, to './dynamic_env/random/dynamic_faraway/OUT_FRAMES/output.mp4':\n",
      "  Metadata:\n",
      "    encoder         : Lavf58.29.100\n",
      "    Stream #0:0: Video: h264 (libx264) (avc1 / 0x31637661), yuv420p, 3000x1802, q=-1--1, 3 fps, 12288 tbn, 3 tbc\n",
      "    Metadata:\n",
      "      encoder         : Lavc58.54.100 libx264\n",
      "    Side data:\n",
      "      cpb: bitrate max/min/avg: 0/0/0 buffer size: 0 vbv_delay: -1\n",
      "frame=   48 fps= 23 q=-1.0 Lsize=     437kB time=00:00:15.00 bitrate= 238.5kbits/s speed=7.07x    \n",
      "video:435kB audio:0kB subtitle:0kB other streams:0kB global headers:0kB muxing overhead: 0.315439%\n",
      "[libx264 @ 0x564f0cc13180] frame I:1     Avg QP: 4.31  size:101356\n",
      "[libx264 @ 0x564f0cc13180] frame P:13    Avg QP:10.00  size: 12329\n",
      "[libx264 @ 0x564f0cc13180] frame B:34    Avg QP:13.34  size:  5394\n",
      "[libx264 @ 0x564f0cc13180] consecutive B-frames:  2.1%  8.3%  6.2% 83.3%\n",
      "[libx264 @ 0x564f0cc13180] mb I  I16..4: 67.7% 23.4%  8.9%\n",
      "[libx264 @ 0x564f0cc13180] mb P  I16..4:  0.7%  0.2%  0.4%  P16..4:  0.7%  0.3%  0.2%  0.0%  0.0%    skip:97.5%\n",
      "[libx264 @ 0x564f0cc13180] mb B  I16..4:  0.2%  0.0%  0.1%  B16..8:  1.1%  0.3%  0.2%  direct: 0.1%  skip:98.1%  L0:44.7% L1:49.0% BI: 6.2%\n",
      "[libx264 @ 0x564f0cc13180] 8x8 transform intra:20.6% inter:11.2%\n",
      "[libx264 @ 0x564f0cc13180] coded y,uvDC,uvAC intra: 9.1% 7.5% 6.9% inter: 0.3% 0.5% 0.4%\n",
      "[libx264 @ 0x564f0cc13180] i16 v,h,dc,p: 83% 15%  1%  0%\n",
      "[libx264 @ 0x564f0cc13180] i8 v,h,dc,ddl,ddr,vr,hd,vl,hu: 45%  3% 51%  0%  0%  0%  0%  0%  0%\n",
      "[libx264 @ 0x564f0cc13180] i4 v,h,dc,ddl,ddr,vr,hd,vl,hu: 34% 27% 22%  3%  2%  3%  3%  3%  3%\n",
      "[libx264 @ 0x564f0cc13180] i8c dc,h,v,p: 88%  8%  3%  0%\n",
      "[libx264 @ 0x564f0cc13180] Weighted P-Frames: Y:0.0% UV:0.0%\n",
      "[libx264 @ 0x564f0cc13180] ref P L0: 68.6%  4.1% 18.8%  8.5%\n",
      "[libx264 @ 0x564f0cc13180] ref B L0: 79.7% 15.9%  4.4%\n",
      "[libx264 @ 0x564f0cc13180] ref B L1: 95.8%  4.2%\n",
      "[libx264 @ 0x564f0cc13180] kb/s:222.52\n"
     ]
    },
    {
     "name": "stdout",
     "output_type": "stream",
     "text": [
      "./dynamic_env/random/dynamic_closer\n"
     ]
    },
    {
     "name": "stderr",
     "output_type": "stream",
     "text": [
      "ffmpeg version 4.2.7-0ubuntu0.1 Copyright (c) 2000-2022 the FFmpeg developers\n",
      "  built with gcc 9 (Ubuntu 9.4.0-1ubuntu1~20.04.1)\n",
      "  configuration: --prefix=/usr --extra-version=0ubuntu0.1 --toolchain=hardened --libdir=/usr/lib/x86_64-linux-gnu --incdir=/usr/include/x86_64-linux-gnu --arch=amd64 --enable-gpl --disable-stripping --enable-avresample --disable-filter=resample --enable-avisynth --enable-gnutls --enable-ladspa --enable-libaom --enable-libass --enable-libbluray --enable-libbs2b --enable-libcaca --enable-libcdio --enable-libcodec2 --enable-libflite --enable-libfontconfig --enable-libfreetype --enable-libfribidi --enable-libgme --enable-libgsm --enable-libjack --enable-libmp3lame --enable-libmysofa --enable-libopenjpeg --enable-libopenmpt --enable-libopus --enable-libpulse --enable-librsvg --enable-librubberband --enable-libshine --enable-libsnappy --enable-libsoxr --enable-libspeex --enable-libssh --enable-libtheora --enable-libtwolame --enable-libvidstab --enable-libvorbis --enable-libvpx --enable-libwavpack --enable-libwebp --enable-libx265 --enable-libxml2 --enable-libxvid --enable-libzmq --enable-libzvbi --enable-lv2 --enable-omx --enable-openal --enable-opencl --enable-opengl --enable-sdl2 --enable-libdc1394 --enable-libdrm --enable-libiec61883 --enable-nvenc --enable-chromaprint --enable-frei0r --enable-libx264 --enable-shared\n",
      "  libavutil      56. 31.100 / 56. 31.100\n",
      "  libavcodec     58. 54.100 / 58. 54.100\n",
      "  libavformat    58. 29.100 / 58. 29.100\n",
      "  libavdevice    58.  8.100 / 58.  8.100\n",
      "  libavfilter     7. 57.100 /  7. 57.100\n",
      "  libavresample   4.  0.  0 /  4.  0.  0\n",
      "  libswscale      5.  5.100 /  5.  5.100\n",
      "  libswresample   3.  5.100 /  3.  5.100\n",
      "  libpostproc    55.  5.100 / 55.  5.100\n",
      "Input #0, image2, from './dynamic_env/random/dynamic_closer/OUT_FRAMES/frame_%04d.png':\n",
      "  Duration: 00:00:16.00, start: 0.000000, bitrate: N/A\n",
      "    Stream #0:0: Video: png, rgb24(pc), 3000x1802, 3 fps, 3 tbr, 3 tbn, 3 tbc\n",
      "Stream mapping:\n",
      "  Stream #0:0 -> #0:0 (png (native) -> h264 (libx264))\n",
      "Press [q] to stop, [?] for help\n",
      "[libx264 @ 0x558e3bdcd180] using cpu capabilities: MMX2 SSE2Fast SSSE3 SSE4.2 AVX FMA3 BMI2 AVX2\n",
      "[libx264 @ 0x558e3bdcd180] profile High, level 5.0\n",
      "[libx264 @ 0x558e3bdcd180] 264 - core 155 r2917 0a84d98 - H.264/MPEG-4 AVC codec - Copyleft 2003-2018 - http://www.videolan.org/x264.html - options: cabac=1 ref=3 deblock=1:0:0 analyse=0x3:0x113 me=hex subme=7 psy=1 psy_rd=1.00:0.00 mixed_ref=1 me_range=16 chroma_me=1 trellis=1 8x8dct=1 cqm=0 deadzone=21,11 fast_pskip=1 chroma_qp_offset=-2 threads=18 lookahead_threads=3 sliced_threads=0 nr=0 decimate=1 interlaced=0 bluray_compat=0 constrained_intra=0 bframes=3 b_pyramid=2 b_adapt=1 b_bias=0 direct=1 weightb=1 open_gop=0 weightp=2 keyint=250 keyint_min=3 scenecut=40 intra_refresh=0 rc_lookahead=40 rc=crf mbtree=1 crf=20.0 qcomp=0.60 qpmin=0 qpmax=69 qpstep=4 ip_ratio=1.40 aq=1:1.00\n",
      "Output #0, mp4, to './dynamic_env/random/dynamic_closer/OUT_FRAMES/output.mp4':\n",
      "  Metadata:\n",
      "    encoder         : Lavf58.29.100\n",
      "    Stream #0:0: Video: h264 (libx264) (avc1 / 0x31637661), yuv420p, 3000x1802, q=-1--1, 3 fps, 12288 tbn, 3 tbc\n",
      "    Metadata:\n",
      "      encoder         : Lavc58.54.100 libx264\n",
      "    Side data:\n",
      "      cpb: bitrate max/min/avg: 0/0/0 buffer size: 0 vbv_delay: -1\n",
      "frame=   48 fps=8.6 q=-1.0 Lsize=     425kB time=00:00:15.00 bitrate= 232.0kbits/s speed= 2.7x    \n",
      "video:423kB audio:0kB subtitle:0kB other streams:0kB global headers:0kB muxing overhead: 0.324230%\n",
      "[libx264 @ 0x558e3bdcd180] frame I:1     Avg QP: 3.92  size: 98403\n",
      "[libx264 @ 0x558e3bdcd180] frame P:13    Avg QP: 8.85  size: 11942\n",
      "[libx264 @ 0x558e3bdcd180] frame B:34    Avg QP:12.72  size:  5274\n",
      "[libx264 @ 0x558e3bdcd180] consecutive B-frames:  2.1%  8.3%  6.2% 83.3%\n",
      "[libx264 @ 0x558e3bdcd180] mb I  I16..4: 71.7% 19.6%  8.7%\n",
      "[libx264 @ 0x558e3bdcd180] mb P  I16..4:  0.7%  0.1%  0.4%  P16..4:  0.7%  0.3%  0.2%  0.0%  0.0%    skip:97.6%\n",
      "[libx264 @ 0x558e3bdcd180] mb B  I16..4:  0.2%  0.0%  0.1%  B16..8:  1.1%  0.3%  0.2%  direct: 0.1%  skip:98.1%  L0:45.5% L1:48.5% BI: 6.0%\n",
      "[libx264 @ 0x558e3bdcd180] 8x8 transform intra:17.2% inter:12.0%\n",
      "[libx264 @ 0x558e3bdcd180] coded y,uvDC,uvAC intra: 9.2% 7.5% 6.8% inter: 0.3% 0.4% 0.4%\n",
      "[libx264 @ 0x558e3bdcd180] i16 v,h,dc,p: 84% 15%  1%  0%\n",
      "[libx264 @ 0x558e3bdcd180] i8 v,h,dc,ddl,ddr,vr,hd,vl,hu: 47%  3% 49%  0%  0%  0%  0%  0%  0%\n",
      "[libx264 @ 0x558e3bdcd180] i4 v,h,dc,ddl,ddr,vr,hd,vl,hu: 34% 28% 22%  3%  2%  3%  3%  3%  3%\n",
      "[libx264 @ 0x558e3bdcd180] i8c dc,h,v,p: 88%  9%  3%  0%\n",
      "[libx264 @ 0x558e3bdcd180] Weighted P-Frames: Y:0.0% UV:0.0%\n",
      "[libx264 @ 0x558e3bdcd180] ref P L0: 67.5%  4.3% 19.5%  8.7%\n",
      "[libx264 @ 0x558e3bdcd180] ref B L0: 77.5% 17.3%  5.2%\n",
      "[libx264 @ 0x558e3bdcd180] ref B L1: 96.3%  3.7%\n",
      "[libx264 @ 0x558e3bdcd180] kb/s:216.48\n"
     ]
    },
    {
     "name": "stdout",
     "output_type": "stream",
     "text": [
      "./dynamic_env/random/dynamic_outside_reach_avoid_set\n"
     ]
    },
    {
     "name": "stderr",
     "output_type": "stream",
     "text": [
      "ffmpeg version 4.2.7-0ubuntu0.1 Copyright (c) 2000-2022 the FFmpeg developers\n",
      "  built with gcc 9 (Ubuntu 9.4.0-1ubuntu1~20.04.1)\n",
      "  configuration: --prefix=/usr --extra-version=0ubuntu0.1 --toolchain=hardened --libdir=/usr/lib/x86_64-linux-gnu --incdir=/usr/include/x86_64-linux-gnu --arch=amd64 --enable-gpl --disable-stripping --enable-avresample --disable-filter=resample --enable-avisynth --enable-gnutls --enable-ladspa --enable-libaom --enable-libass --enable-libbluray --enable-libbs2b --enable-libcaca --enable-libcdio --enable-libcodec2 --enable-libflite --enable-libfontconfig --enable-libfreetype --enable-libfribidi --enable-libgme --enable-libgsm --enable-libjack --enable-libmp3lame --enable-libmysofa --enable-libopenjpeg --enable-libopenmpt --enable-libopus --enable-libpulse --enable-librsvg --enable-librubberband --enable-libshine --enable-libsnappy --enable-libsoxr --enable-libspeex --enable-libssh --enable-libtheora --enable-libtwolame --enable-libvidstab --enable-libvorbis --enable-libvpx --enable-libwavpack --enable-libwebp --enable-libx265 --enable-libxml2 --enable-libxvid --enable-libzmq --enable-libzvbi --enable-lv2 --enable-omx --enable-openal --enable-opencl --enable-opengl --enable-sdl2 --enable-libdc1394 --enable-libdrm --enable-libiec61883 --enable-nvenc --enable-chromaprint --enable-frei0r --enable-libx264 --enable-shared\n",
      "  libavutil      56. 31.100 / 56. 31.100\n",
      "  libavcodec     58. 54.100 / 58. 54.100\n",
      "  libavformat    58. 29.100 / 58. 29.100\n",
      "  libavdevice    58.  8.100 / 58.  8.100\n",
      "  libavfilter     7. 57.100 /  7. 57.100\n",
      "  libavresample   4.  0.  0 /  4.  0.  0\n",
      "  libswscale      5.  5.100 /  5.  5.100\n",
      "  libswresample   3.  5.100 /  3.  5.100\n",
      "  libpostproc    55.  5.100 / 55.  5.100\n",
      "Input #0, image2, from './dynamic_env/random/dynamic_outside_reach_avoid_set/OUT_FRAMES/frame_%04d.png':\n",
      "  Duration: 00:00:16.00, start: 0.000000, bitrate: N/A\n",
      "    Stream #0:0: Video: png, rgb24(pc), 3000x1802, 3 fps, 3 tbr, 3 tbn, 3 tbc\n",
      "Stream mapping:\n",
      "  Stream #0:0 -> #0:0 (png (native) -> h264 (libx264))\n",
      "Press [q] to stop, [?] for help\n",
      "[libx264 @ 0x55aa84369a80] using cpu capabilities: MMX2 SSE2Fast SSSE3 SSE4.2 AVX FMA3 BMI2 AVX2\n",
      "[libx264 @ 0x55aa84369a80] profile High, level 5.0\n",
      "[libx264 @ 0x55aa84369a80] 264 - core 155 r2917 0a84d98 - H.264/MPEG-4 AVC codec - Copyleft 2003-2018 - http://www.videolan.org/x264.html - options: cabac=1 ref=3 deblock=1:0:0 analyse=0x3:0x113 me=hex subme=7 psy=1 psy_rd=1.00:0.00 mixed_ref=1 me_range=16 chroma_me=1 trellis=1 8x8dct=1 cqm=0 deadzone=21,11 fast_pskip=1 chroma_qp_offset=-2 threads=18 lookahead_threads=3 sliced_threads=0 nr=0 decimate=1 interlaced=0 bluray_compat=0 constrained_intra=0 bframes=3 b_pyramid=2 b_adapt=1 b_bias=0 direct=1 weightb=1 open_gop=0 weightp=2 keyint=250 keyint_min=3 scenecut=40 intra_refresh=0 rc_lookahead=40 rc=crf mbtree=1 crf=20.0 qcomp=0.60 qpmin=0 qpmax=69 qpstep=4 ip_ratio=1.40 aq=1:1.00\n",
      "Output #0, mp4, to './dynamic_env/random/dynamic_outside_reach_avoid_set/OUT_FRAMES/output.mp4':\n",
      "  Metadata:\n",
      "    encoder         : Lavf58.29.100\n",
      "    Stream #0:0: Video: h264 (libx264) (avc1 / 0x31637661), yuv420p, 3000x1802, q=-1--1, 3 fps, 12288 tbn, 3 tbc\n",
      "    Metadata:\n",
      "      encoder         : Lavc58.54.100 libx264\n",
      "    Side data:\n",
      "      cpb: bitrate max/min/avg: 0/0/0 buffer size: 0 vbv_delay: -1\n",
      "frame=   48 fps=8.5 q=-1.0 Lsize=     413kB time=00:00:15.00 bitrate= 225.5kbits/s speed=2.66x    \n",
      "video:411kB audio:0kB subtitle:0kB other streams:0kB global headers:0kB muxing overhead: 0.335603%\n",
      "[libx264 @ 0x55aa84369a80] frame I:1     Avg QP: 3.36  size:100513\n",
      "[libx264 @ 0x55aa84369a80] frame P:14    Avg QP: 8.59  size: 10817\n",
      "[libx264 @ 0x55aa84369a80] frame B:33    Avg QP:11.76  size:  5112\n",
      "[libx264 @ 0x55aa84369a80] consecutive B-frames:  4.2% 12.5%  0.0% 83.3%\n",
      "[libx264 @ 0x55aa84369a80] mb I  I16..4: 76.3% 14.9%  8.8%\n",
      "[libx264 @ 0x55aa84369a80] mb P  I16..4:  0.9%  0.1%  0.3%  P16..4:  0.7%  0.3%  0.2%  0.0%  0.0%    skip:97.5%\n",
      "[libx264 @ 0x55aa84369a80] mb B  I16..4:  0.2%  0.0%  0.1%  B16..8:  1.1%  0.3%  0.2%  direct: 0.1%  skip:98.2%  L0:45.2% L1:48.4% BI: 6.4%\n",
      "[libx264 @ 0x55aa84369a80] 8x8 transform intra:12.8% inter:10.7%\n",
      "[libx264 @ 0x55aa84369a80] coded y,uvDC,uvAC intra: 8.6% 6.9% 6.3% inter: 0.3% 0.4% 0.4%\n",
      "[libx264 @ 0x55aa84369a80] i16 v,h,dc,p: 85% 14%  1%  0%\n",
      "[libx264 @ 0x55aa84369a80] i8 v,h,dc,ddl,ddr,vr,hd,vl,hu: 50%  3% 46%  0%  0%  0%  0%  0%  0%\n",
      "[libx264 @ 0x55aa84369a80] i4 v,h,dc,ddl,ddr,vr,hd,vl,hu: 32% 28% 22%  3%  2%  2%  4%  3%  3%\n",
      "[libx264 @ 0x55aa84369a80] i8c dc,h,v,p: 88%  9%  3%  0%\n",
      "[libx264 @ 0x55aa84369a80] Weighted P-Frames: Y:0.0% UV:0.0%\n",
      "[libx264 @ 0x55aa84369a80] ref P L0: 70.1%  4.3% 16.3%  9.3%\n",
      "[libx264 @ 0x55aa84369a80] ref B L0: 78.7% 16.2%  5.0%\n",
      "[libx264 @ 0x55aa84369a80] ref B L1: 95.3%  4.7%\n",
      "[libx264 @ 0x55aa84369a80] kb/s:210.32\n"
     ]
    }
   ],
   "source": [
    "import subprocess\n",
    "\n",
    "# ffmpeg -framerate 3 -i ./OUT_FRAMES/frame_%04d.png -c:v libx264 -profile:v high -crf 20 -pix_fmt yuv420p output.mp4\n",
    "\n",
    "folders = get_list_dirs_experiments('.', [], \n",
    "                    required_folders=[FOLDER_IN_INPUTS, FOLDER_IN_V_2D, FOLDER_IN_V_3D, FOLDER_IN_WORKSPACE])\n",
    "for folder in folders:\n",
    "    print(folder)\n",
    "    create_frames_folder(folder)\n",
    "\n",
    "    cmd = 'ffmpeg '\n",
    "    cmd += '-y ' # overwrite\n",
    "    cmd += '-framerate 3 -i '\n",
    "    cmd += os.path.join(folder, FOLDER_OUT, 'frame_%04d.png')\n",
    "    cmd += ' -c:v libx264 -profile:v high -crf 20 -pix_fmt yuv420p '\n",
    "    cmd += os.path.join(folder, FOLDER_OUT, 'output.mp4') \n",
    "    results = subprocess.run(cmd, shell=True, universal_newlines=True, check=True)\n",
    "    #break"
   ]
  },
  {
   "cell_type": "code",
   "execution_count": null,
   "metadata": {},
   "outputs": [],
   "source": []
  }
 ],
 "metadata": {
  "interpreter": {
   "hash": "d13de9de277e34258646065c26e87b9858af3bce3709fe0bf4f5b9306d5a2893"
  },
  "kernelspec": {
   "display_name": "Python 3.9.7 ('tf_env')",
   "language": "python",
   "name": "python3"
  },
  "language_info": {
   "codemirror_mode": {
    "name": "ipython",
    "version": 3
   },
   "file_extension": ".py",
   "mimetype": "text/x-python",
   "name": "python",
   "nbconvert_exporter": "python",
   "pygments_lexer": "ipython3",
   "version": "3.9.7"
  },
  "orig_nbformat": 2
 },
 "nbformat": 4,
 "nbformat_minor": 2
}
